<svg width="63" height="50" viewBox="0 0 63 50" fill="none" xmlns="http://www.w3.org/2000/svg">
<rect width="62.35" height="50" rx="20" fill="#C2DCFA"/>
<path d="M30.175 29.3164H32.175V25.3164H36.175V23.3164H32.175V19.3164H30.175V23.3164H26.175V25.3164H30.175V29.3164ZM31.175 34.3164C29.7917 34.3164 28.4917 34.0539 27.275 33.5289C26.0583 33.0039 25 32.2914 24.1 31.3914C23.2 30.4914 22.4875 29.4331 21.9625 28.2164C21.4375 26.9997 21.175 25.6997 21.175 24.3164C21.175 22.9331 21.4375 21.6331 21.9625 20.4164C22.4875 19.1997 23.2 18.1414 24.1 17.2414C25 16.3414 26.0583 15.6289 27.275 15.1039C28.4917 14.5789 29.7917 14.3164 31.175 14.3164C32.5583 14.3164 33.8583 14.5789 35.075 15.1039C36.2917 15.6289 37.35 16.3414 38.25 17.2414C39.15 18.1414 39.8625 19.1997 40.3875 20.4164C40.9125 21.6331 41.175 22.9331 41.175 24.3164C41.175 25.6997 40.9125 26.9997 40.3875 28.2164C39.8625 29.4331 39.15 30.4914 38.25 31.3914C37.35 32.2914 36.2917 33.0039 35.075 33.5289C33.8583 34.0539 32.5583 34.3164 31.175 34.3164ZM31.175 32.3164C33.4083 32.3164 35.3 31.5414 36.85 29.9914C38.4 28.4414 39.175 26.5497 39.175 24.3164C39.175 22.0831 38.4 20.1914 36.85 18.6414C35.3 17.0914 33.4083 16.3164 31.175 16.3164C28.9417 16.3164 27.05 17.0914 25.5 18.6414C23.95 20.1914 23.175 22.0831 23.175 24.3164C23.175 26.5497 23.95 28.4414 25.5 29.9914C27.05 31.5414 28.9417 32.3164 31.175 32.3164Z" fill="#1080FF"/>
</svg>
