<svg width="50" height="50" viewBox="0 0 50 50" fill="none" xmlns="http://www.w3.org/2000/svg">
<rect width="50" height="50" rx="20" fill="#C2DCFA"/>
<path d="M18 35C17.45 35 16.9792 34.8042 16.5875 34.4125C16.1958 34.0208 16 33.55 16 33V19C16 18.45 16.1958 17.9792 16.5875 17.5875C16.9792 17.1958 17.45 17 18 17H19V15H21V17H29V15H31V17H32C32.55 17 33.0208 17.1958 33.4125 17.5875C33.8042 17.9792 34 18.45 34 19V33C34 33.55 33.8042 34.0208 33.4125 34.4125C33.0208 34.8042 32.55 35 32 35H18ZM18 33H32V23H18V33ZM18 21H32V19H18V21Z" fill="#1080FF"/>
</svg>
