<svg width="63" height="50" viewBox="0 0 63 50" fill="none" xmlns="http://www.w3.org/2000/svg">
<rect width="62.35" height="50" rx="20" fill="#C2DCFA"/>
<path d="M26 22V20H40V22H26ZM26 26V24H40V26H26ZM26 30V28H40V30H26ZM23 22C22.7167 22 22.4792 21.9042 22.2875 21.7125C22.0958 21.5208 22 21.2833 22 21C22 20.7167 22.0958 20.4792 22.2875 20.2875C22.4792 20.0958 22.7167 20 23 20C23.2833 20 23.5208 20.0958 23.7125 20.2875C23.9042 20.4792 24 20.7167 24 21C24 21.2833 23.9042 21.5208 23.7125 21.7125C23.5208 21.9042 23.2833 22 23 22ZM23 26C22.7167 26 22.4792 25.9042 22.2875 25.7125C22.0958 25.5208 22 25.2833 22 25C22 24.7167 22.0958 24.4792 22.2875 24.2875C22.4792 24.0958 22.7167 24 23 24C23.2833 24 23.5208 24.0958 23.7125 24.2875C23.9042 24.4792 24 24.7167 24 25C24 25.2833 23.9042 25.5208 23.7125 25.7125C23.5208 25.9042 23.2833 26 23 26ZM23 30C22.7167 30 22.4792 29.9042 22.2875 29.7125C22.0958 29.5208 22 29.2833 22 29C22 28.7167 22.0958 28.4792 22.2875 28.2875C22.4792 28.0958 22.7167 28 23 28C23.2833 28 23.5208 28.0958 23.7125 28.2875C23.9042 28.4792 24 28.7167 24 29C24 29.2833 23.9042 29.5208 23.7125 29.7125C23.5208 29.9042 23.2833 30 23 30Z" fill="#1080FF"/>
</svg>
